<?xml version="1.0" encoding="UTF-8" standalone="no"?>
<!-- Created with Inkscape (http://www.inkscape.org/) -->

<svg
   xmlns:dc="http://purl.org/dc/elements/1.1/"
   xmlns:cc="http://creativecommons.org/ns#"
   xmlns:rdf="http://www.w3.org/1999/02/22-rdf-syntax-ns#"
   xmlns:svg="http://www.w3.org/2000/svg"
   xmlns="http://www.w3.org/2000/svg"
   xmlns:sodipodi="http://sodipodi.sourceforge.net/DTD/sodipodi-0.dtd"
   xmlns:inkscape="http://www.inkscape.org/namespaces/inkscape"
   width="48"
   height="48"
   viewBox="0 0 12.7 12.7"
   version="1.1"
   id="svg8"
   inkscape:version="0.92.4 (5da689c313, 2019-01-14)"
   sodipodi:docname="logo.svg">
  <defs
     id="defs2" />
  <sodipodi:namedview
     id="base"
     pagecolor="#ffffff"
     bordercolor="#666666"
     borderopacity="1.0"
     inkscape:pageopacity="0.0"
     inkscape:pageshadow="2"
     inkscape:zoom="11.2"
     inkscape:cx="18.572696"
     inkscape:cy="18.437283"
     inkscape:document-units="px"
     inkscape:current-layer="layer1"
     showgrid="false"
     inkscape:window-width="1920"
     inkscape:window-height="1017"
     inkscape:window-x="-8"
     inkscape:window-y="-8"
     inkscape:window-maximized="1"
     units="px" />
  <metadata
     id="metadata5">
    <rdf:RDF>
      <cc:Work
         rdf:about="">
        <dc:format>image/svg+xml</dc:format>
        <dc:type
           rdf:resource="http://purl.org/dc/dcmitype/StillImage" />
        <dc:title></dc:title>
      </cc:Work>
    </rdf:RDF>
  </metadata>
  <g
     inkscape:label="Layer 1"
     inkscape:groupmode="layer"
     id="layer1"
     transform="translate(0,-284.3)">
    <g
       transform="matrix(0.02737869,0,0,-0.02737864,-12.757438,322.44085)"
       inkscape:label="ink_ext_XXXXXX"
       id="g18">
      <g
         transform="scale(0.1)"
         id="g20">
        <path
           inkscape:connector-curvature="0"
           id="path22"
           style="fill:#5f493e;fill-opacity:1;fill-rule:nonzero;stroke:none"
           d="m 7498.65,12532 c -54.77,31.6 -117.15,48.3 -180.38,48.3 -63.24,0 -125.62,-16.7 -180.38,-48.3 l -545.73,-315.1 576.01,-332.5 c 45.57,-26.4 97.47,-40.3 150.1,-40.3 52.62,0 104.53,13.9 150.1,40.3 l 576,332.5 -545.72,315.1" />
        <path
           inkscape:connector-curvature="0"
           id="path24"
           style="fill:#c8b59a;fill-opacity:1;fill-rule:nonzero;stroke:none"
           d="m 8577.41,12630.1 -1074.7,626.8 c -57.06,32.9 -120.75,49.4 -184.44,49.4 -63.69,0 -127.38,-16.5 -184.45,-49.4 l -1074.7,-626.8 c -34.12,-19.9 -39.16,-64.7 -15.45,-92.1 4.32,-5 9.47,-9.5 15.69,-13.1 l 450.42,-260 1.59,-1 555.31,320.6 c 77.84,45 164.72,67.4 251.59,67.4 86.87,0 173.74,-22.4 251.58,-67.4 l 555.31,-320.6 1.6,1 450.42,260 c 6.22,3.6 11.37,8.1 15.68,13.1 23.72,27.4 18.68,72.2 -15.45,92.1" />
        <path
           inkscape:connector-curvature="0"
           id="path26"
           style="fill:#e5cdb0;fill-opacity:1;fill-rule:nonzero;stroke:none"
           d="m 8798.49,12176.3 c -0.03,53.1 -53.76,90.1 -101.57,77.8 l -1166.64,-673.4 c -20.36,-11.8 -41.86,-25.1 -63.46,-33.2 -47.47,-20 -98,-30.1 -148.55,-30.1 -50.56,0 -101.09,10.1 -148.56,30.1 -21.6,8.1 -43.1,21.4 -63.45,33.2 l -1166.65,673.4 c -47.8,12.3 -101.54,-24.7 -101.56,-77.8 l -0.51,-1164.6 c 0,-0.4 0.03,-0.8 0.03,-1.2 0.42,-131.3 70.61,-252.6 184.41,-318.3 l 1111.84,-641.9 c 57.07,-33 120.76,-49.4 184.45,-49.4 63.69,0 127.38,16.4 184.44,49.4 l 1111.84,641.9 c 113.8,65.7 184,187 184.41,318.3 0,0.4 0.04,0.8 0.04,1.2 l -0.51,1164.6" />
        <path
           inkscape:connector-curvature="0"
           id="path28"
           style="fill:#463d37;fill-opacity:1;fill-rule:nonzero;stroke:none"
           d="m 8798.96,11010.5 c -0.41,-131.3 -70.61,-252.6 -184.41,-318.3 l -1111.84,-641.9 c -57.06,-33 -120.75,-49.4 -184.44,-49.4 -63.69,0 -127.38,16.4 -184.45,49.4 l -1111.84,641.9 c -113.8,65.7 -183.99,187 -184.41,318.3 0,0.4 -0.03,0.8 -0.03,1.2 l 0.51,1164.6 c 0.02,53.1 50.37,88.8 98.18,76.5 6.8,-1.7 13.56,-4.4 20.11,-8.2 l 1170.75,-676 c 13.85,-8 28.11,-14.9 42.62,-21.1 47.47,-20 98,-30.1 148.56,-30.1 50.55,0 101.08,10.1 148.55,30.1 14.52,6.2 28.77,13.1 42.62,21.1 l 1170.76,676 c 6.55,3.8 13.3,6.5 20.11,8.2 47.8,12.3 98.15,-23.4 98.18,-76.5 l 0.51,-1164.6 c 0,-0.4 -0.04,-0.8 -0.04,-1.2 z m -2739.84,1619.6 1074.7,626.8 c 57.07,32.9 120.76,49.4 184.45,49.4 63.69,0 127.38,-16.5 184.44,-49.4 l 1074.7,-626.8 c 34.13,-19.9 39.17,-64.7 15.45,-92.1 -4.31,-5 -9.46,-9.5 -15.68,-13.1 l -1108.81,-640.5 c -45.57,-26.4 -97.48,-40.3 -150.1,-40.3 -52.63,0 -104.53,13.9 -150.1,40.3 l -1108.81,640.5 c -6.22,3.6 -11.37,8.1 -15.69,13.1 -23.71,27.4 -18.67,72.2 15.45,92.1 z M 5274.67,11298 c -74.04,0 -134.06,60 -134.06,134.1 v 501.2 c 0,74 60.02,134 134.06,134 h 256.87 V 11298 Z m 3544.87,1552 -1215.82,701.9 c -88.32,51 -186.89,76.5 -285.45,76.5 -98.57,0 -197.14,-25.5 -285.46,-76.5 L 5817,12850 c -176.64,-102 -285.46,-290.5 -285.46,-494.5 h -307.72 c -204.85,0 -370.92,-166 -370.92,-370.9 v -603.9 c 0,-204.8 166.07,-370.9 370.92,-370.9 h 307.72 v -58.2 c 0,-203.9 108.82,-392.4 285.46,-494.4 l 1215.81,-701.94 c 88.32,-50.99 186.89,-76.48 285.46,-76.48 98.56,0 197.13,25.49 285.45,76.48 l 1215.82,701.94 c 176.64,102 285.45,290.5 285.45,494.4 v 1403.9 c 0,204 -108.81,392.5 -285.45,494.5" />
        <g
           transform="scale(10)"
           id="g30" />
        <g
           transform="scale(10)"
           id="g36" />
        <g
           transform="scale(10)"
           id="g42" />
        <g
           transform="scale(10)"
           id="g56" />
        <g
           transform="scale(10)"
           id="g62" />
        <g
           transform="scale(10)"
           id="g68" />
      </g>
    </g>
  </g>
</svg>
